<?xml version="1.0" encoding="UTF-8" standalone="no"?>
<!DOCTYPE svg PUBLIC "-//W3C//DTD SVG 1.1//EN"
 "http://www.w3.org/Graphics/SVG/1.1/DTD/svg11.dtd">
<!-- Generated by graphviz version 2.44.0 (20200408.0750)
 -->
<!-- Title: dependency&#45;cruiser output Pages: 1 -->
<svg width="423pt" height="208pt"
 viewBox="0.00 0.00 423.01 208.00" xmlns="http://www.w3.org/2000/svg" xmlns:xlink="http://www.w3.org/1999/xlink">
<g id="graph0" class="graph" transform="scale(1 1) rotate(0) translate(4 204)">
<title>dependency&#45;cruiser output</title>
<polygon fill="white" stroke="transparent" points="-4,4 -4,-204 419.01,-204 419.01,4 -4,4"/>
<g id="clust1" class="cluster">
<title>cluster_client</title>
<path fill="#ffffff" stroke="black" stroke-width="2" d="M20,-8C20,-8 395.01,-8 395.01,-8 401.01,-8 407.01,-14 407.01,-20 407.01,-20 407.01,-180 407.01,-180 407.01,-186 401.01,-192 395.01,-192 395.01,-192 20,-192 20,-192 14,-192 8,-186 8,-180 8,-180 8,-20 8,-20 8,-14 14,-8 20,-8"/>
<text text-anchor="middle" x="207.5" y="-179.9" font-family="Helvetica,sans-Serif" font-weight="bold" font-size="9.00">client</text>
</g>
<g id="clust2" class="cluster">
<title>cluster_client/src</title>
<path fill="#ffffff" stroke="black" stroke-width="2" d="M28,-16C28,-16 325.01,-16 325.01,-16 331.01,-16 337.01,-22 337.01,-28 337.01,-28 337.01,-153 337.01,-153 337.01,-159 331.01,-165 325.01,-165 325.01,-165 28,-165 28,-165 22,-165 16,-159 16,-153 16,-153 16,-28 16,-28 16,-22 22,-16 28,-16"/>
<text text-anchor="middle" x="176.5" y="-152.9" font-family="Helvetica,sans-Serif" font-weight="bold" font-size="9.00">src</text>
</g>
<g id="clust3" class="cluster">
<title>cluster_client/src/components</title>
<path fill="#ffffff" stroke="black" stroke-width="2" d="M271.01,-24C271.01,-24 317.01,-24 317.01,-24 323.01,-24 329.01,-30 329.01,-36 329.01,-36 329.01,-65 329.01,-65 329.01,-71 323.01,-77 317.01,-77 317.01,-77 271.01,-77 271.01,-77 265.01,-77 259.01,-71 259.01,-65 259.01,-65 259.01,-36 259.01,-36 259.01,-30 265.01,-24 271.01,-24"/>
<text text-anchor="middle" x="294.01" y="-64.9" font-family="Helvetica,sans-Serif" font-weight="bold" font-size="9.00">components</text>
</g>
<g id="clust4" class="cluster">
<title>cluster_client/src/handlers</title>
<path fill="#ffffff" stroke="black" stroke-width="2" d="M192,-85C192,-85 239.01,-85 239.01,-85 245.01,-85 251.01,-91 251.01,-97 251.01,-97 251.01,-126 251.01,-126 251.01,-132 245.01,-138 239.01,-138 239.01,-138 192,-138 192,-138 186,-138 180,-132 180,-126 180,-126 180,-97 180,-97 180,-91 186,-85 192,-85"/>
<text text-anchor="middle" x="215.5" y="-125.9" font-family="Helvetica,sans-Serif" font-weight="bold" font-size="9.00">handlers</text>
</g>
<g id="clust5" class="cluster">
<title>cluster_client/src/init</title>
<path fill="#ffffff" stroke="black" stroke-width="2" d="M36,-85C36,-85 82,-85 82,-85 88,-85 94,-91 94,-97 94,-97 94,-126 94,-126 94,-132 88,-138 82,-138 82,-138 36,-138 36,-138 30,-138 24,-132 24,-126 24,-126 24,-97 24,-97 24,-91 30,-85 36,-85"/>
<text text-anchor="middle" x="59" y="-125.9" font-family="Helvetica,sans-Serif" font-weight="bold" font-size="9.00">init</text>
</g>
<g id="clust6" class="cluster">
<title>cluster_client/src/listeners</title>
<path fill="#ffffff" stroke="black" stroke-width="2" d="M114,-85C114,-85 160,-85 160,-85 166,-85 172,-91 172,-97 172,-97 172,-126 172,-126 172,-132 166,-138 160,-138 160,-138 114,-138 114,-138 108,-138 102,-132 102,-126 102,-126 102,-97 102,-97 102,-91 108,-85 114,-85"/>
<text text-anchor="middle" x="137" y="-125.9" font-family="Helvetica,sans-Serif" font-weight="bold" font-size="9.00">listeners</text>
</g>
<g id="clust7" class="cluster">
<title>cluster_client/src/logic</title>
<path fill="#ffffff" stroke="black" stroke-width="2" d="M271.01,-85C271.01,-85 317.01,-85 317.01,-85 323.01,-85 329.01,-91 329.01,-97 329.01,-97 329.01,-126 329.01,-126 329.01,-132 323.01,-138 317.01,-138 317.01,-138 271.01,-138 271.01,-138 265.01,-138 259.01,-132 259.01,-126 259.01,-126 259.01,-97 259.01,-97 259.01,-91 265.01,-85 271.01,-85"/>
<text text-anchor="middle" x="294.01" y="-125.9" font-family="Helvetica,sans-Serif" font-weight="bold" font-size="9.00">logic</text>
</g>
<!-- client/data.js -->
<g id="node1" class="node">
<title>client/data.js</title>
<g id="a_node1"><a xlink:href="../client/data.js" xlink:title="data.js">
<path fill="#ffffcc" stroke="black" d="M392.81,-133.3C392.81,-133.3 351.21,-133.3 351.21,-133.3 348.11,-133.3 345.01,-130.2 345.01,-127.1 345.01,-127.1 345.01,-120.9 345.01,-120.9 345.01,-117.8 348.11,-114.7 351.21,-114.7 351.21,-114.7 392.81,-114.7 392.81,-114.7 395.91,-114.7 399.01,-117.8 399.01,-120.9 399.01,-120.9 399.01,-127.1 399.01,-127.1 399.01,-130.2 395.91,-133.3 392.81,-133.3"/>
<text text-anchor="middle" x="372.01" y="-121.3" font-family="Helvetica,sans-Serif" font-size="9.00">data.js</text>
</a>
</g>
</g>
<!-- client/src/components/render.js -->
<g id="node2" class="node">
<title>client/src/components/render.js</title>
<g id="a_node2"><a xlink:href="../client/src/components/render.js" xlink:title="render.js">
<path fill="#ffffcc" stroke="black" d="M314.81,-50.3C314.81,-50.3 273.21,-50.3 273.21,-50.3 270.11,-50.3 267.01,-47.2 267.01,-44.1 267.01,-44.1 267.01,-37.9 267.01,-37.9 267.01,-34.8 270.11,-31.7 273.21,-31.7 273.21,-31.7 314.81,-31.7 314.81,-31.7 317.91,-31.7 321.01,-34.8 321.01,-37.9 321.01,-37.9 321.01,-44.1 321.01,-44.1 321.01,-47.2 317.91,-50.3 314.81,-50.3"/>
<text text-anchor="middle" x="294.01" y="-38.3" font-family="Helvetica,sans-Serif" font-size="9.00">render.js</text>
</a>
</g>
</g>
<!-- client/src/handlers/handler.js -->
<g id="node3" class="node">
<title>client/src/handlers/handler.js</title>
<g id="a_node3"><a xlink:href="../client/src/handlers/handler.js" xlink:title="handler.js">
<path fill="#ffffcc" stroke="black" d="M236.81,-111.3C236.81,-111.3 194.2,-111.3 194.2,-111.3 191.1,-111.3 188,-108.2 188,-105.1 188,-105.1 188,-98.9 188,-98.9 188,-95.8 191.1,-92.7 194.2,-92.7 194.2,-92.7 236.81,-92.7 236.81,-92.7 239.91,-92.7 243.01,-95.8 243.01,-98.9 243.01,-98.9 243.01,-105.1 243.01,-105.1 243.01,-108.2 239.91,-111.3 236.81,-111.3"/>
<text text-anchor="middle" x="215.5" y="-99.3" font-family="Helvetica,sans-Serif" font-size="9.00">handler.js</text>
</a>
</g>
</g>
<!-- client/src/handlers/handler.js&#45;&gt;client/data.js -->
<g id="edge1" class="edge">
<title>client/src/handlers/handler.js&#45;&gt;client/data.js</title>
<path fill="none" stroke="#000000" stroke-width="2" stroke-opacity="0.200000" d="M223.37,-111.53C230.88,-121.06 243.89,-135.11 259.01,-141 291.31,-153.58 303.27,-148.96 337.01,-141 341.51,-139.94 346.1,-138.18 350.39,-136.19"/>
<polygon fill="#000000" fill-opacity="0.200000" stroke="#000000" stroke-width="2" stroke-opacity="0.200000" points="351.59,-137.94 356.01,-133.38 349.71,-134.18 351.59,-137.94"/>
</g>
<!-- client/src/handlers/handler.js&#45;&gt;client/src/components/render.js -->
<g id="edge2" class="edge">
<title>client/src/handlers/handler.js&#45;&gt;client/src/components/render.js</title>
<path fill="none" stroke="#000000" stroke-width="2" stroke-opacity="0.200000" d="M228.46,-92.47C241.26,-82.26 261.67,-65.98 276.11,-54.47"/>
<polygon fill="#000000" fill-opacity="0.200000" stroke="#000000" stroke-width="2" stroke-opacity="0.200000" points="277.76,-55.85 281.14,-50.46 275.14,-52.56 277.76,-55.85"/>
</g>
<!-- client/src/logic/logic.js -->
<g id="node4" class="node">
<title>client/src/logic/logic.js</title>
<g id="a_node4"><a xlink:href="../client/src/logic/logic.js" xlink:title="logic.js">
<path fill="#ffffcc" stroke="black" d="M314.81,-111.3C314.81,-111.3 273.21,-111.3 273.21,-111.3 270.11,-111.3 267.01,-108.2 267.01,-105.1 267.01,-105.1 267.01,-98.9 267.01,-98.9 267.01,-95.8 270.11,-92.7 273.21,-92.7 273.21,-92.7 314.81,-92.7 314.81,-92.7 317.91,-92.7 321.01,-95.8 321.01,-98.9 321.01,-98.9 321.01,-105.1 321.01,-105.1 321.01,-108.2 317.91,-111.3 314.81,-111.3"/>
<text text-anchor="middle" x="294.01" y="-99.3" font-family="Helvetica,sans-Serif" font-size="9.00">logic.js</text>
</a>
</g>
</g>
<!-- client/src/handlers/handler.js&#45;&gt;client/src/logic/logic.js -->
<g id="edge3" class="edge">
<title>client/src/handlers/handler.js&#45;&gt;client/src/logic/logic.js</title>
<path fill="none" stroke="#000000" stroke-width="2" stroke-opacity="0.200000" d="M243.26,-102C248.89,-102 254.89,-102 260.7,-102"/>
<polygon fill="#000000" fill-opacity="0.200000" stroke="#000000" stroke-width="2" stroke-opacity="0.200000" points="260.91,-104.1 266.91,-102 260.91,-99.9 260.91,-104.1"/>
</g>
<!-- client/src/logic/logic.js&#45;&gt;client/data.js -->
<g id="edge6" class="edge">
<title>client/src/logic/logic.js&#45;&gt;client/data.js</title>
<path fill="none" stroke="#000000" stroke-width="2" stroke-opacity="0.200000" d="M321.16,-109.57C326.89,-111.23 333.03,-113.01 338.96,-114.72"/>
<polygon fill="#000000" fill-opacity="0.200000" stroke="#000000" stroke-width="2" stroke-opacity="0.200000" points="338.46,-116.76 344.8,-116.41 339.62,-112.73 338.46,-116.76"/>
</g>
<!-- client/src/init/index.js -->
<g id="node5" class="node">
<title>client/src/init/index.js</title>
<g id="a_node5"><a xlink:href="../client/src/init/index.js" xlink:title="index.js">
<path fill="#ffffcc" stroke="black" d="M79.8,-111.3C79.8,-111.3 38.2,-111.3 38.2,-111.3 35.1,-111.3 32,-108.2 32,-105.1 32,-105.1 32,-98.9 32,-98.9 32,-95.8 35.1,-92.7 38.2,-92.7 38.2,-92.7 79.8,-92.7 79.8,-92.7 82.9,-92.7 86,-95.8 86,-98.9 86,-98.9 86,-105.1 86,-105.1 86,-108.2 82.9,-111.3 79.8,-111.3"/>
<text text-anchor="middle" x="59" y="-99.3" font-family="Helvetica,sans-Serif" font-size="9.00">index.js</text>
</a>
</g>
</g>
<!-- client/src/listeners/listener.js -->
<g id="node6" class="node">
<title>client/src/listeners/listener.js</title>
<g id="a_node6"><a xlink:href="../client/src/listeners/listener.js" xlink:title="listener.js">
<path fill="#ffffcc" stroke="black" d="M157.8,-111.3C157.8,-111.3 116.2,-111.3 116.2,-111.3 113.1,-111.3 110,-108.2 110,-105.1 110,-105.1 110,-98.9 110,-98.9 110,-95.8 113.1,-92.7 116.2,-92.7 116.2,-92.7 157.8,-92.7 157.8,-92.7 160.9,-92.7 164,-95.8 164,-98.9 164,-98.9 164,-105.1 164,-105.1 164,-108.2 160.9,-111.3 157.8,-111.3"/>
<text text-anchor="middle" x="137" y="-99.3" font-family="Helvetica,sans-Serif" font-size="9.00">listener.js</text>
</a>
</g>
</g>
<!-- client/src/init/index.js&#45;&gt;client/src/listeners/listener.js -->
<g id="edge4" class="edge">
<title>client/src/init/index.js&#45;&gt;client/src/listeners/listener.js</title>
<path fill="none" stroke="#000000" stroke-width="2" stroke-opacity="0.200000" d="M86.15,-102C91.77,-102 97.76,-102 103.58,-102"/>
<polygon fill="#000000" fill-opacity="0.200000" stroke="#000000" stroke-width="2" stroke-opacity="0.200000" points="103.8,-104.1 109.8,-102 103.8,-99.9 103.8,-104.1"/>
</g>
<!-- client/src/listeners/listener.js&#45;&gt;client/src/handlers/handler.js -->
<g id="edge5" class="edge">
<title>client/src/listeners/listener.js&#45;&gt;client/src/handlers/handler.js</title>
<path fill="none" stroke="#000000" stroke-width="2" stroke-opacity="0.200000" d="M164.33,-102C169.91,-102 175.88,-102 181.67,-102"/>
<polygon fill="#000000" fill-opacity="0.200000" stroke="#000000" stroke-width="2" stroke-opacity="0.200000" points="181.87,-104.1 187.87,-102 181.87,-99.9 181.87,-104.1"/>
</g>
</g>
</svg>
