<?xml version="1.0" encoding="UTF-8" standalone="no"?>
<!DOCTYPE svg PUBLIC "-//W3C//DTD SVG 1.1//EN"
 "http://www.w3.org/Graphics/SVG/1.1/DTD/svg11.dtd">
<!-- Generated by graphviz version 2.44.0 (20200408.0750)
 -->
<!-- Title: dependency&#45;cruiser output Pages: 1 -->
<svg width="401pt" height="297pt"
 viewBox="0.00 0.00 400.52 297.00" xmlns="http://www.w3.org/2000/svg" xmlns:xlink="http://www.w3.org/1999/xlink">
<g id="graph0" class="graph" transform="scale(1 1) rotate(0) translate(4 293)">
<title>dependency&#45;cruiser output</title>
<polygon fill="white" stroke="transparent" points="-4,4 -4,-293 396.52,-293 396.52,4 -4,4"/>
<g id="clust1" class="cluster">
<title>cluster_client</title>
<path fill="#ffffff" stroke="black" stroke-width="2" d="M20,-8C20,-8 372.52,-8 372.52,-8 378.52,-8 384.52,-14 384.52,-20 384.52,-20 384.52,-269 384.52,-269 384.52,-275 378.52,-281 372.52,-281 372.52,-281 20,-281 20,-281 14,-281 8,-275 8,-269 8,-269 8,-20 8,-20 8,-14 14,-8 20,-8"/>
<text text-anchor="middle" x="196.26" y="-268.9" font-family="Helvetica,sans-Serif" font-weight="bold" font-size="9.00">client</text>
</g>
<g id="clust2" class="cluster">
<title>cluster_client/src</title>
<path fill="#ffffff" stroke="black" stroke-width="2" d="M28,-16C28,-16 364.52,-16 364.52,-16 370.52,-16 376.52,-22 376.52,-28 376.52,-28 376.52,-216 376.52,-216 376.52,-222 370.52,-228 364.52,-228 364.52,-228 28,-228 28,-228 22,-228 16,-222 16,-216 16,-216 16,-28 16,-28 16,-22 22,-16 28,-16"/>
<text text-anchor="middle" x="196.26" y="-215.9" font-family="Helvetica,sans-Serif" font-weight="bold" font-size="9.00">src</text>
</g>
<g id="clust3" class="cluster">
<title>cluster_client/src/components</title>
<path fill="#ffffff" stroke="black" stroke-width="2" d="M276.51,-24C276.51,-24 356.52,-24 356.52,-24 362.52,-24 368.52,-30 368.52,-36 368.52,-36 368.52,-96 368.52,-96 368.52,-102 362.52,-108 356.52,-108 356.52,-108 276.51,-108 276.51,-108 270.51,-108 264.51,-102 264.51,-96 264.51,-96 264.51,-36 264.51,-36 264.51,-30 270.51,-24 276.51,-24"/>
<text text-anchor="middle" x="316.52" y="-95.9" font-family="Helvetica,sans-Serif" font-weight="bold" font-size="9.00">components</text>
</g>
<g id="clust4" class="cluster">
<title>cluster_client/src/handlers</title>
<path fill="#ffffff" stroke="black" stroke-width="2" d="M192,-24C192,-24 244.51,-24 244.51,-24 250.51,-24 256.51,-30 256.51,-36 256.51,-36 256.51,-189 256.51,-189 256.51,-195 250.51,-201 244.51,-201 244.51,-201 192,-201 192,-201 186,-201 180,-195 180,-189 180,-189 180,-36 180,-36 180,-30 186,-24 192,-24"/>
<text text-anchor="middle" x="218.26" y="-188.9" font-family="Helvetica,sans-Serif" font-weight="bold" font-size="9.00">handlers</text>
</g>
<g id="clust5" class="cluster">
<title>cluster_client/src/init</title>
<path fill="#ffffff" stroke="black" stroke-width="2" d="M36,-132C36,-132 82,-132 82,-132 88,-132 94,-138 94,-144 94,-144 94,-173 94,-173 94,-179 88,-185 82,-185 82,-185 36,-185 36,-185 30,-185 24,-179 24,-173 24,-173 24,-144 24,-144 24,-138 30,-132 36,-132"/>
<text text-anchor="middle" x="59" y="-172.9" font-family="Helvetica,sans-Serif" font-weight="bold" font-size="9.00">init</text>
</g>
<g id="clust6" class="cluster">
<title>cluster_client/src/listeners</title>
<path fill="#ffffff" stroke="black" stroke-width="2" d="M114,-132C114,-132 160,-132 160,-132 166,-132 172,-138 172,-144 172,-144 172,-173 172,-173 172,-179 166,-185 160,-185 160,-185 114,-185 114,-185 108,-185 102,-179 102,-173 102,-173 102,-144 102,-144 102,-138 108,-132 114,-132"/>
<text text-anchor="middle" x="137" y="-172.9" font-family="Helvetica,sans-Serif" font-weight="bold" font-size="9.00">listeners</text>
</g>
<g id="clust7" class="cluster">
<title>cluster_client/src/logic</title>
<path fill="#ffffff" stroke="black" stroke-width="2" d="M36,-55C36,-55 82,-55 82,-55 88,-55 94,-61 94,-67 94,-67 94,-96 94,-96 94,-102 88,-108 82,-108 82,-108 36,-108 36,-108 30,-108 24,-102 24,-96 24,-96 24,-67 24,-67 24,-61 30,-55 36,-55"/>
<text text-anchor="middle" x="59" y="-95.9" font-family="Helvetica,sans-Serif" font-weight="bold" font-size="9.00">logic</text>
</g>
<!-- client/data.js -->
<g id="node1" class="node">
<title>client/data.js</title>
<g id="a_node1"><a xlink:href="../client/data.js" xlink:title="data.js">
<path fill="#ffffcc" stroke="black" d="M337.31,-254.3C337.31,-254.3 295.72,-254.3 295.72,-254.3 292.62,-254.3 289.52,-251.2 289.52,-248.1 289.52,-248.1 289.52,-241.9 289.52,-241.9 289.52,-238.8 292.62,-235.7 295.72,-235.7 295.72,-235.7 337.31,-235.7 337.31,-235.7 340.41,-235.7 343.52,-238.8 343.52,-241.9 343.52,-241.9 343.52,-248.1 343.52,-248.1 343.52,-251.2 340.41,-254.3 337.31,-254.3"/>
<text text-anchor="middle" x="316.52" y="-242.3" font-family="Helvetica,sans-Serif" font-size="9.00">data.js</text>
</a>
</g>
</g>
<!-- client/src/components/render&#45;done&#45;list.js -->
<g id="node2" class="node">
<title>client/src/components/render&#45;done&#45;list.js</title>
<g id="a_node2"><a xlink:href="../client/src/components/render-done-list.js" xlink:title="render&#45;done&#45;list.js">
<path fill="#ffffcc" stroke="black" d="M354.32,-50.3C354.32,-50.3 278.71,-50.3 278.71,-50.3 275.61,-50.3 272.51,-47.2 272.51,-44.1 272.51,-44.1 272.51,-37.9 272.51,-37.9 272.51,-34.8 275.61,-31.7 278.71,-31.7 278.71,-31.7 354.32,-31.7 354.32,-31.7 357.42,-31.7 360.52,-34.8 360.52,-37.9 360.52,-37.9 360.52,-44.1 360.52,-44.1 360.52,-47.2 357.42,-50.3 354.32,-50.3"/>
<text text-anchor="middle" x="316.52" y="-38.3" font-family="Helvetica,sans-Serif" font-size="9.00">render&#45;done&#45;list.js</text>
</a>
</g>
</g>
<!-- client/src/handlers/not&#45;done.js -->
<g id="node3" class="node">
<title>client/src/handlers/not&#45;done.js</title>
<g id="a_node3"><a xlink:href="../client/src/handlers/not-done.js" xlink:title="not&#45;done.js">
<path fill="#ffffcc" stroke="black" d="M242.07,-50.3C242.07,-50.3 194.44,-50.3 194.44,-50.3 191.34,-50.3 188.24,-47.2 188.24,-44.1 188.24,-44.1 188.24,-37.9 188.24,-37.9 188.24,-34.8 191.34,-31.7 194.44,-31.7 194.44,-31.7 242.07,-31.7 242.07,-31.7 245.17,-31.7 248.27,-34.8 248.27,-37.9 248.27,-37.9 248.27,-44.1 248.27,-44.1 248.27,-47.2 245.17,-50.3 242.07,-50.3"/>
<text text-anchor="middle" x="218.26" y="-38.3" font-family="Helvetica,sans-Serif" font-size="9.00">not&#45;done.js</text>
</a>
</g>
</g>
<!-- client/src/components/render&#45;done&#45;list.js&#45;&gt;client/src/handlers/not&#45;done.js -->
<g id="edge1" class="edge">
<title>client/src/components/render&#45;done&#45;list.js&#45;&gt;client/src/handlers/not&#45;done.js</title>
<path fill="none" stroke="#000000" stroke-width="2" stroke-opacity="0.200000" d="M272.27,-45.48C268.98,-45.51 265.67,-45.51 262.39,-45.48"/>
<polygon fill="#000000" fill-opacity="0.200000" stroke="#000000" stroke-width="2" stroke-opacity="0.200000" points="254.44,-43.2 248.4,-45.17 254.35,-47.4 254.44,-43.2"/>
<polyline fill="none" stroke="#000000" stroke-width="2" stroke-opacity="0.200000" points="254.4,-45.3 257.4,-45.37 "/>
<ellipse fill="none" stroke="#000000" stroke-width="2" stroke-opacity="0.200000" cx="259.8" cy="-45.42" rx="2.4" ry="2.4"/>
</g>
<!-- client/src/handlers/not&#45;done.js&#45;&gt;client/data.js -->
<g id="edge11" class="edge">
<title>client/src/handlers/not&#45;done.js&#45;&gt;client/data.js</title>
<path fill="none" stroke="#000000" stroke-width="2" stroke-opacity="0.200000" d="M248.63,-49.99C251.64,-51.9 254.37,-54.21 256.51,-57 271.31,-76.22 258.39,-87.52 264.51,-111 276.11,-155.41 297.46,-205.36 308.49,-229.83"/>
<polygon fill="#000000" fill-opacity="0.200000" stroke="#000000" stroke-width="2" stroke-opacity="0.200000" points="306.67,-230.89 311.07,-235.48 310.49,-229.15 306.67,-230.89"/>
</g>
<!-- client/src/handlers/not&#45;done.js&#45;&gt;client/src/components/render&#45;done&#45;list.js -->
<g id="edge12" class="edge">
<title>client/src/handlers/not&#45;done.js&#45;&gt;client/src/components/render&#45;done&#45;list.js</title>
<path fill="none" stroke="#000000" stroke-width="2" stroke-opacity="0.200000" d="M248.4,-36.83C251.57,-36.71 254.88,-36.63 258.25,-36.57"/>
<polygon fill="#000000" fill-opacity="0.200000" stroke="#000000" stroke-width="2" stroke-opacity="0.200000" points="266.27,-38.64 272.27,-36.52 266.26,-34.44 266.27,-38.64"/>
<polyline fill="none" stroke="#000000" stroke-width="2" stroke-opacity="0.200000" points="266.27,-36.54 263.27,-36.55 "/>
<ellipse fill="none" stroke="#000000" stroke-width="2" stroke-opacity="0.200000" cx="260.87" cy="-36.56" rx="2.4" ry="2.4"/>
</g>
<!-- client/src/components/render&#45;list.js -->
<g id="node4" class="node">
<title>client/src/components/render&#45;list.js</title>
<g id="a_node4"><a xlink:href="../client/src/components/render-list.js" xlink:title="render&#45;list.js">
<path fill="#ffffcc" stroke="black" d="M342.81,-81.3C342.81,-81.3 290.22,-81.3 290.22,-81.3 287.12,-81.3 284.02,-78.2 284.02,-75.1 284.02,-75.1 284.02,-68.9 284.02,-68.9 284.02,-65.8 287.12,-62.7 290.22,-62.7 290.22,-62.7 342.81,-62.7 342.81,-62.7 345.91,-62.7 349.01,-65.8 349.01,-68.9 349.01,-68.9 349.01,-75.1 349.01,-75.1 349.01,-78.2 345.91,-81.3 342.81,-81.3"/>
<text text-anchor="middle" x="316.52" y="-69.3" font-family="Helvetica,sans-Serif" font-size="9.00">render&#45;list.js</text>
</a>
</g>
</g>
<!-- client/src/handlers/not&#45;done.js&#45;&gt;client/src/components/render&#45;list.js -->
<g id="edge13" class="edge">
<title>client/src/handlers/not&#45;done.js&#45;&gt;client/src/components/render&#45;list.js</title>
<path fill="none" stroke="#000000" stroke-width="2" stroke-opacity="0.200000" d="M247.48,-50.43C253.12,-52.29 259,-54.22 264.51,-56 267.06,-56.82 269.69,-57.66 272.34,-58.51"/>
<polygon fill="#000000" fill-opacity="0.200000" stroke="#000000" stroke-width="2" stroke-opacity="0.200000" points="279.2,-62.88 285.55,-62.69 280.47,-58.88 279.2,-62.88"/>
<polyline fill="none" stroke="#000000" stroke-width="2" stroke-opacity="0.200000" points="279.83,-60.88 276.97,-59.97 "/>
<ellipse fill="none" stroke="#000000" stroke-width="2" stroke-opacity="0.200000" cx="274.69" cy="-59.25" rx="2.4" ry="2.4"/>
</g>
<!-- client/src/handlers/delete.js -->
<g id="node5" class="node">
<title>client/src/handlers/delete.js</title>
<g id="a_node5"><a xlink:href="../client/src/handlers/delete.js" xlink:title="delete.js">
<path fill="#ffffcc" stroke="black" d="M239.06,-112.3C239.06,-112.3 197.46,-112.3 197.46,-112.3 194.36,-112.3 191.26,-109.2 191.26,-106.1 191.26,-106.1 191.26,-99.9 191.26,-99.9 191.26,-96.8 194.36,-93.7 197.46,-93.7 197.46,-93.7 239.06,-93.7 239.06,-93.7 242.16,-93.7 245.26,-96.8 245.26,-99.9 245.26,-99.9 245.26,-106.1 245.26,-106.1 245.26,-109.2 242.16,-112.3 239.06,-112.3"/>
<text text-anchor="middle" x="218.26" y="-100.3" font-family="Helvetica,sans-Serif" font-size="9.00">delete.js</text>
</a>
</g>
</g>
<!-- client/src/components/render&#45;list.js&#45;&gt;client/src/handlers/delete.js -->
<g id="edge2" class="edge">
<title>client/src/components/render&#45;list.js&#45;&gt;client/src/handlers/delete.js</title>
<path fill="none" stroke="#000000" stroke-width="2" stroke-opacity="0.200000" d="M283.77,-79.41C277.36,-81.1 270.68,-83 264.51,-85 258.72,-86.88 252.61,-89.13 246.81,-91.39"/>
<polygon fill="#000000" fill-opacity="0.200000" stroke="#000000" stroke-width="2" stroke-opacity="0.200000" points="245.95,-89.47 241.15,-93.63 247.5,-93.37 245.95,-89.47"/>
</g>
<!-- client/src/handlers/done.js -->
<g id="node6" class="node">
<title>client/src/handlers/done.js</title>
<g id="a_node6"><a xlink:href="../client/src/handlers/done.js" xlink:title="done.js">
<path fill="#ffffcc" stroke="black" d="M239.06,-81.3C239.06,-81.3 197.46,-81.3 197.46,-81.3 194.36,-81.3 191.26,-78.2 191.26,-75.1 191.26,-75.1 191.26,-68.9 191.26,-68.9 191.26,-65.8 194.36,-62.7 197.46,-62.7 197.46,-62.7 239.06,-62.7 239.06,-62.7 242.16,-62.7 245.26,-65.8 245.26,-68.9 245.26,-68.9 245.26,-75.1 245.26,-75.1 245.26,-78.2 242.16,-81.3 239.06,-81.3"/>
<text text-anchor="middle" x="218.26" y="-69.3" font-family="Helvetica,sans-Serif" font-size="9.00">done.js</text>
</a>
</g>
</g>
<!-- client/src/components/render&#45;list.js&#45;&gt;client/src/handlers/done.js -->
<g id="edge3" class="edge">
<title>client/src/components/render&#45;list.js&#45;&gt;client/src/handlers/done.js</title>
<path fill="none" stroke="#000000" stroke-width="2" stroke-opacity="0.200000" d="M283.96,-76.25C276.04,-76.5 267.43,-76.56 259.17,-76.44"/>
<polygon fill="#000000" fill-opacity="0.200000" stroke="#000000" stroke-width="2" stroke-opacity="0.200000" points="251.36,-74.12 245.31,-76.05 251.24,-78.32 251.36,-74.12"/>
<polyline fill="none" stroke="#000000" stroke-width="2" stroke-opacity="0.200000" points="251.3,-76.22 254.3,-76.3 "/>
<ellipse fill="none" stroke="#000000" stroke-width="2" stroke-opacity="0.200000" cx="256.7" cy="-76.37" rx="2.4" ry="2.4"/>
</g>
<!-- client/src/handlers/delete.js&#45;&gt;client/data.js -->
<g id="edge7" class="edge">
<title>client/src/handlers/delete.js&#45;&gt;client/data.js</title>
<path fill="none" stroke="#000000" stroke-width="2" stroke-opacity="0.200000" d="M245.61,-111.41C249.58,-113.46 253.38,-115.96 256.51,-119 288.99,-150.44 305.51,-203.25 312.05,-229.38"/>
<polygon fill="#000000" fill-opacity="0.200000" stroke="#000000" stroke-width="2" stroke-opacity="0.200000" points="310.06,-230.08 313.51,-235.42 314.15,-229.1 310.06,-230.08"/>
</g>
<!-- client/src/handlers/done.js&#45;&gt;client/data.js -->
<g id="edge8" class="edge">
<title>client/src/handlers/done.js&#45;&gt;client/data.js</title>
<path fill="none" stroke="#000000" stroke-width="2" stroke-opacity="0.200000" d="M245.51,-79.94C249.58,-82.06 253.44,-84.7 256.51,-88 263.89,-95.92 260.81,-100.83 264.51,-111 280.3,-154.34 299.95,-205.14 309.6,-229.9"/>
<polygon fill="#000000" fill-opacity="0.200000" stroke="#000000" stroke-width="2" stroke-opacity="0.200000" points="307.7,-230.79 311.84,-235.61 311.61,-229.26 307.7,-230.79"/>
</g>
<!-- client/src/handlers/done.js&#45;&gt;client/src/components/render&#45;done&#45;list.js -->
<g id="edge9" class="edge">
<title>client/src/handlers/done.js&#45;&gt;client/src/components/render&#45;done&#45;list.js</title>
<path fill="none" stroke="#000000" stroke-width="2" stroke-opacity="0.200000" d="M245.56,-63.2C251.77,-61.15 258.37,-58.98 264.51,-57 267.06,-56.18 269.69,-55.34 272.34,-54.49"/>
<polygon fill="#000000" fill-opacity="0.200000" stroke="#000000" stroke-width="2" stroke-opacity="0.200000" points="280.47,-54.12 285.55,-50.31 279.2,-50.12 280.47,-54.12"/>
<polyline fill="none" stroke="#000000" stroke-width="2" stroke-opacity="0.200000" points="279.83,-52.12 276.97,-53.03 "/>
<ellipse fill="none" stroke="#000000" stroke-width="2" stroke-opacity="0.200000" cx="274.69" cy="-53.75" rx="2.4" ry="2.4"/>
</g>
<!-- client/src/handlers/done.js&#45;&gt;client/src/components/render&#45;list.js -->
<g id="edge10" class="edge">
<title>client/src/handlers/done.js&#45;&gt;client/src/components/render&#45;list.js</title>
<path fill="none" stroke="#000000" stroke-width="2" stroke-opacity="0.200000" d="M245.31,-67.95C252.94,-67.62 261.52,-67.47 269.99,-67.51"/>
<polygon fill="#000000" fill-opacity="0.200000" stroke="#000000" stroke-width="2" stroke-opacity="0.200000" points="277.92,-69.74 283.96,-67.75 278,-65.54 277.92,-69.74"/>
<polyline fill="none" stroke="#000000" stroke-width="2" stroke-opacity="0.200000" points="277.96,-67.64 274.96,-67.59 "/>
<ellipse fill="none" stroke="#000000" stroke-width="2" stroke-opacity="0.200000" cx="272.56" cy="-67.55" rx="2.4" ry="2.4"/>
</g>
<!-- client/src/handlers/add.js -->
<g id="node7" class="node">
<title>client/src/handlers/add.js</title>
<g id="a_node7"><a xlink:href="../client/src/handlers/add.js" xlink:title="add.js">
<path fill="#ffffcc" stroke="black" d="M239.06,-143.3C239.06,-143.3 197.46,-143.3 197.46,-143.3 194.36,-143.3 191.26,-140.2 191.26,-137.1 191.26,-137.1 191.26,-130.9 191.26,-130.9 191.26,-127.8 194.36,-124.7 197.46,-124.7 197.46,-124.7 239.06,-124.7 239.06,-124.7 242.16,-124.7 245.26,-127.8 245.26,-130.9 245.26,-130.9 245.26,-137.1 245.26,-137.1 245.26,-140.2 242.16,-143.3 239.06,-143.3"/>
<text text-anchor="middle" x="218.26" y="-131.3" font-family="Helvetica,sans-Serif" font-size="9.00">add.js</text>
</a>
</g>
</g>
<!-- client/src/handlers/add.js&#45;&gt;client/data.js -->
<g id="edge4" class="edge">
<title>client/src/handlers/add.js&#45;&gt;client/data.js</title>
<path fill="none" stroke="#000000" stroke-width="2" stroke-opacity="0.200000" d="M245.32,-142.74C249.31,-144.75 253.21,-147.15 256.51,-150 282.64,-172.47 300.9,-209.44 309.64,-230.01"/>
<polygon fill="#000000" fill-opacity="0.200000" stroke="#000000" stroke-width="2" stroke-opacity="0.200000" points="307.72,-230.85 311.95,-235.59 311.6,-229.25 307.72,-230.85"/>
</g>
<!-- client/src/handlers/add.js&#45;&gt;client/src/components/render&#45;list.js -->
<g id="edge5" class="edge">
<title>client/src/handlers/add.js&#45;&gt;client/src/components/render&#45;list.js</title>
<path fill="none" stroke="#000000" stroke-width="2" stroke-opacity="0.200000" d="M245.41,-126.51C249.59,-124.33 253.52,-121.55 256.51,-118 266.25,-106.47 253.91,-95.73 264.51,-85 268.25,-81.22 272.93,-78.48 277.92,-76.51"/>
<polygon fill="#000000" fill-opacity="0.200000" stroke="#000000" stroke-width="2" stroke-opacity="0.200000" points="278.86,-78.42 283.89,-74.54 277.54,-74.43 278.86,-78.42"/>
</g>
<!-- client/src/handlers/clear&#45;all.js -->
<g id="node8" class="node">
<title>client/src/handlers/clear&#45;all.js</title>
<g id="a_node8"><a xlink:href="../client/src/handlers/clear-all.js" xlink:title="clear&#45;all.js">
<path fill="#ffffcc" stroke="black" d="M240.55,-174.3C240.55,-174.3 195.96,-174.3 195.96,-174.3 192.86,-174.3 189.76,-171.2 189.76,-168.1 189.76,-168.1 189.76,-161.9 189.76,-161.9 189.76,-158.8 192.86,-155.7 195.96,-155.7 195.96,-155.7 240.55,-155.7 240.55,-155.7 243.65,-155.7 246.75,-158.8 246.75,-161.9 246.75,-161.9 246.75,-168.1 246.75,-168.1 246.75,-171.2 243.65,-174.3 240.55,-174.3"/>
<text text-anchor="middle" x="218.26" y="-162.3" font-family="Helvetica,sans-Serif" font-size="9.00">clear&#45;all.js</text>
</a>
</g>
</g>
<!-- client/src/handlers/clear&#45;all.js&#45;&gt;client/data.js -->
<g id="edge6" class="edge">
<title>client/src/handlers/clear&#45;all.js&#45;&gt;client/data.js</title>
<path fill="none" stroke="#000000" stroke-width="2" stroke-opacity="0.200000" d="M230.68,-174.49C247.76,-188.69 280.02,-215.5 299.46,-231.66"/>
<polygon fill="#000000" fill-opacity="0.200000" stroke="#000000" stroke-width="2" stroke-opacity="0.200000" points="298.15,-233.3 304.11,-235.52 300.84,-230.07 298.15,-233.3"/>
</g>
<!-- client/src/init/index.js -->
<g id="node9" class="node">
<title>client/src/init/index.js</title>
<g id="a_node9"><a xlink:href="../client/src/init/index.js" xlink:title="index.js">
<path fill="#ffffcc" stroke="black" d="M79.8,-158.3C79.8,-158.3 38.2,-158.3 38.2,-158.3 35.1,-158.3 32,-155.2 32,-152.1 32,-152.1 32,-145.9 32,-145.9 32,-142.8 35.1,-139.7 38.2,-139.7 38.2,-139.7 79.8,-139.7 79.8,-139.7 82.9,-139.7 86,-142.8 86,-145.9 86,-145.9 86,-152.1 86,-152.1 86,-155.2 82.9,-158.3 79.8,-158.3"/>
<text text-anchor="middle" x="59" y="-146.3" font-family="Helvetica,sans-Serif" font-size="9.00">index.js</text>
</a>
</g>
</g>
<!-- client/src/listeners/listener.js -->
<g id="node10" class="node">
<title>client/src/listeners/listener.js</title>
<g id="a_node10"><a xlink:href="../client/src/listeners/listener.js" xlink:title="listener.js">
<path fill="#ffffcc" stroke="black" d="M157.8,-158.3C157.8,-158.3 116.2,-158.3 116.2,-158.3 113.1,-158.3 110,-155.2 110,-152.1 110,-152.1 110,-145.9 110,-145.9 110,-142.8 113.1,-139.7 116.2,-139.7 116.2,-139.7 157.8,-139.7 157.8,-139.7 160.9,-139.7 164,-142.8 164,-145.9 164,-145.9 164,-152.1 164,-152.1 164,-155.2 160.9,-158.3 157.8,-158.3"/>
<text text-anchor="middle" x="137" y="-146.3" font-family="Helvetica,sans-Serif" font-size="9.00">listener.js</text>
</a>
</g>
</g>
<!-- client/src/init/index.js&#45;&gt;client/src/listeners/listener.js -->
<g id="edge14" class="edge">
<title>client/src/init/index.js&#45;&gt;client/src/listeners/listener.js</title>
<path fill="none" stroke="#000000" stroke-width="2" stroke-opacity="0.200000" d="M86.15,-149C91.77,-149 97.76,-149 103.58,-149"/>
<polygon fill="#000000" fill-opacity="0.200000" stroke="#000000" stroke-width="2" stroke-opacity="0.200000" points="103.8,-151.1 109.8,-149 103.8,-146.9 103.8,-151.1"/>
</g>
<!-- client/src/listeners/listener.js&#45;&gt;client/src/handlers/add.js -->
<g id="edge15" class="edge">
<title>client/src/listeners/listener.js&#45;&gt;client/src/handlers/add.js</title>
<path fill="none" stroke="#000000" stroke-width="2" stroke-opacity="0.200000" d="M164.39,-144.01C171.01,-142.75 178.19,-141.39 185.05,-140.09"/>
<polygon fill="#000000" fill-opacity="0.200000" stroke="#000000" stroke-width="2" stroke-opacity="0.200000" points="185.75,-142.1 191.25,-138.92 184.96,-137.97 185.75,-142.1"/>
</g>
<!-- client/src/listeners/listener.js&#45;&gt;client/src/handlers/clear&#45;all.js -->
<g id="edge16" class="edge">
<title>client/src/listeners/listener.js&#45;&gt;client/src/handlers/clear&#45;all.js</title>
<path fill="none" stroke="#000000" stroke-width="2" stroke-opacity="0.200000" d="M164.39,-154.33C170.67,-155.59 177.44,-156.96 183.98,-158.28"/>
<polygon fill="#000000" fill-opacity="0.200000" stroke="#000000" stroke-width="2" stroke-opacity="0.200000" points="183.6,-160.35 189.9,-159.48 184.43,-156.23 183.6,-160.35"/>
</g>
<!-- client/src/logic/logic.js -->
<g id="node11" class="node">
<title>client/src/logic/logic.js</title>
<g id="a_node11"><a xlink:href="../client/src/logic/logic.js" xlink:title="logic.js">
<path fill="#ccffcc" stroke="black" d="M79.8,-81.3C79.8,-81.3 38.2,-81.3 38.2,-81.3 35.1,-81.3 32,-78.2 32,-75.1 32,-75.1 32,-68.9 32,-68.9 32,-65.8 35.1,-62.7 38.2,-62.7 38.2,-62.7 79.8,-62.7 79.8,-62.7 82.9,-62.7 86,-65.8 86,-68.9 86,-68.9 86,-75.1 86,-75.1 86,-78.2 82.9,-81.3 79.8,-81.3"/>
<text text-anchor="middle" x="59" y="-69.3" font-family="Helvetica,sans-Serif" font-size="9.00">logic.js</text>
</a>
</g>
</g>
</g>
</svg>
